PathFileType	4	(X/Y/Z)	s11c0202.trc
DataRate	CameraRate	NumFrames	NumMarkers	Units	OrigDataRate	OrigDataStartFrame	OrigNumFrames
200	200	4	48	mm	200	1750	2000
Frame#	Time	racr			lacr			c7			jug			rlel			rdr			llel			ldr			s2			lic			ric			lasi			rasi			rpsi			lpsi			rgt			lgt			rth1			rth2			rth3			rth4			rlfc			rmfc			rsh1			rsh2			rsh3			rsh4			rlmal			rcal			rtoe			rmt5			lth1			lth2			lth4			lth3			llfc			lmfc			llmal			lcal			lmt5			lsh1			lsh2			lsh3			lsh4			ltoe			SBIKE			LBIKE			RBIKE			
		X1	Y1	Z1	X2	Y2	Z2	X3	Y3	Z3	X4	Y4	Z4	X5	Y5	Z5	X6	Y6	Z6	X7	Y7	Z7	X8	Y8	Z8	X9	Y9	Z9	X10	Y10	Z10	X11	Y11	Z11	X12	Y12	Z12	X13	Y13	Z13	X14	Y14	Z14	X15	Y15	Z15	X16	Y16	Z16	X17	Y17	Z17	X18	Y18	Z18	X19	Y19	Z19	X20	Y20	Z20	X21	Y21	Z21	X22	Y22	Z22	X23	Y23	Z23	X24	Y24	Z24	X25	Y25	Z25	X26	Y26	Z26	X27	Y27	Z27	X28	Y28	Z28	X29	Y29	Z29	X30	Y30	Z30	X31	Y31	Z31	X32	Y32	Z32	X33	Y33	Z33	X34	Y34	Z34	X35	Y35	Z35	X36	Y36	Z36	X37	Y37	Z37	X38	Y38	Z38	X39	Y39	Z39	X40	Y40	Z40	X41	Y41	Z41	X42	Y42	Z42	X43	Y43	Z43	X44	Y44	Z44	X45	Y45	Z45	X46	Y46	Z46	X47	Y47	Z47	X48	Y48	Z48	
1750	8.7500	473.393529	1354.796525	-38.580842	516.617994	1334.183322	-346.711979	435.834523	1457.055571	-198.335830	454.026227	1276.201433	-194.763979	531.271274	1102.854663	63.060941	757.704148	971.618823	-72.838446	551.064106	1142.323568	-585.415302	777.502316	952.234232	-473.635454	-114.550619	1211.315681	-280.787753	118.867256	1213.169767	-465.337753	76.137858	1238.986348	-61.094139	145.668539	1146.623975	-437.518145	108.144846	1185.515516	-111.398928	-74.351704	1290.275596	-236.976323	-70.630424	1276.019230	-325.941017	60.802692	1120.541907	-42.150372	8.937207	1074.305951	-476.785230	197.735595	1078.701577	-47.707560	286.516311	1082.417208	-58.276142	363.679529	1042.268067	-70.267948	293.278246	1117.232476	-70.535785	472.217417	1012.829152	-88.448983	477.345955	992.560470	-223.429314	416.024637	870.848131	-77.210450	398.892053	784.883747	-89.980337	342.484897	718.457471	-90.566185	425.337489	775.232825	-118.064764	270.041232	590.039537	-99.972508	204.859577	591.798211	-146.379406	461.072568	462.077113	-153.272883	388.282922	460.146609	-82.055506	86.400282	946.027524	-492.197299	144.869413	883.968026	-489.662805	177.951415	900.325961	-488.841402	165.603252	796.841282	-480.008844	226.835254	673.458246	-452.568420	248.598516	670.225840	-325.939313	19.509336	292.622277	-415.664438	-38.563456	253.543064	-375.655335	154.324613	183.416517	-452.571754	164.469057	564.854625	-468.210049	148.005848	482.141704	-449.474894	90.960625	415.544133	-441.431953	177.761823	472.594726	-427.822398	255.035802	197.971524	-389.812711	-216.105929	952.507863	-258.632718	-17.889945	80.990387	-461.084500	-17.870996	81.287604	-62.327989	
1751	8.7550	473.249000	1353.579972	-39.218113	516.782003	1331.928926	-346.075316	435.635195	1456.648060	-198.701506	452.859124	1275.467859	-194.212857	532.992046	1102.974726	62.797226	757.687299	971.616116	-72.791453	553.175166	1141.688657	-585.032718	777.235990	950.789301	-473.666517	-115.778591	1211.824740	-281.523817	118.150322	1213.244549	-465.457433	74.547299	1238.964466	-61.598743	145.050976	1146.076546	-438.139056	106.830770	1184.453801	-109.117900	-74.929015	1290.414056	-237.922902	-70.673118	1276.268926	-326.913971	58.427084	1118.662411	-43.135345	8.769131	1074.108119	-477.303490	195.548325	1075.065501	-48.689324	284.600096	1078.348448	-58.816860	361.406256	1036.947032	-70.654659	291.638288	1112.727949	-71.176079	469.818933	1005.657330	-88.947074	475.048223	984.291063	-223.818098	414.903068	861.704355	-76.318815	398.684534	775.442400	-89.237618	342.941682	708.493226	-89.666936	425.075564	766.218808	-117.509816	272.111137	579.075581	-99.166287	206.074556	578.076752	-145.129647	468.121756	461.088145	-152.702187	395.819440	454.816014	-80.869137	89.157034	947.077601	-492.737917	149.194641	886.452111	-490.277944	181.780068	903.641447	-489.002208	171.906059	799.740875	-481.178311	234.454657	677.016980	-454.014442	256.476978	673.897608	-327.598495	15.814948	303.342478	-416.111025	-43.394739	266.364610	-375.965928	147.062313	189.594664	-452.442978	168.415171	570.481823	-469.377995	149.683152	488.395670	-450.253992	90.826715	423.369762	-442.031847	179.174846	478.136794	-428.658845	248.132701	200.473820	-389.593862	-216.239054	952.517955	-258.396602	-17.886515	80.986812	-461.105676	-17.879856	81.247457	-62.324013	
1752	8.7600	473.038561	1352.373915	-39.856035	516.695197	1330.008546	-345.712486	435.285474	1456.000119	-199.053064	451.648924	1274.749424	-193.909196	535.243466	1103.638752	62.609867	757.547130	971.504813	-72.677973	555.380528	1140.785065	-584.332864	777.019241	950.221390	-473.093959	-120.311147	1212.903822	-280.113521	117.274034	1213.472313	-465.604755	72.986029	1238.609661	-62.043523	144.419986	1145.480549	-438.967521	105.891874	1183.177930	-107.381039	-75.488690	1290.252145	-238.821060	-70.924326	1276.220084	-327.661649	56.214503	1116.534186	-44.035217	8.888691	1073.571307	-477.783686	193.327248	1070.914459	-49.515183	282.617575	1072.680396	-59.619808	359.124804	1030.996329	-70.943397	290.445969	1107.527164	-72.019433	467.096000	997.772321	-89.212264	472.652259	974.975961	-223.776293	413.710598	851.595487	-75.357634	398.450817	764.943853	-88.515136	343.408021	697.497146	-88.654035	424.634878	756.300486	-117.152171	274.165017	567.270613	-98.203606	207.071339	563.398132	-143.616457	474.630644	459.168112	-152.283135	403.108949	449.418417	-79.935062	92.211925	948.228839	-493.217808	153.752441	889.079739	-490.737148	185.922253	907.047806	-488.882030	178.735959	802.900628	-482.003221	242.264273	681.015231	-455.388967	264.667901	677.774591	-329.076770	12.761720	314.419933	-416.739038	-47.530791	279.565499	-376.189417	140.215983	196.134781	-452.292324	172.773852	576.430875	-470.417702	151.813872	495.313204	-451.397703	91.154340	431.624097	-442.615758	180.909752	483.774744	-429.257467	241.528997	203.333922	-389.414128	-216.210529	952.402781	-258.361234	-17.898637	80.925976	-461.110029	-17.903508	81.211889	-62.306273	
1753	8.7650	472.672132	1351.370437	-40.652367	516.407091	1328.440817	-345.494286	434.711930	1455.334554	-199.594971	450.467672	1274.225965	-193.738530	536.446375	1104.255725	62.476872	757.273184	971.337229	-72.495558	556.967026	1139.699314	-583.712169	776.566667	950.357282	-472.289366	-113.863145	1210.704673	-284.872063	116.338884	1213.761196	-465.869161	71.657292	1237.977992	-62.490596	143.542876	1145.137592	-439.516455	105.577083	1181.390051	-108.135186	-75.874949	1289.959167	-239.708690	-71.769554	1276.093520	-327.371712	54.078767	1114.335838	-44.632314	9.208552	1073.337437	-478.309809	192.086494	1067.182257	-50.584229	281.194828	1067.507267	-60.302035	357.038175	1024.393358	-71.174845	289.720120	1101.917159	-73.051873	464.174894	989.010263	-89.487662	470.274702	964.859411	-223.998444	412.361045	840.388787	-74.288162	397.867193	753.746205	-87.882789	343.544553	685.799816	-87.469168	423.608329	745.559293	-116.722233	275.811693	554.787174	-97.188732	207.775461	548.416695	-141.578600	480.345079	457.095157	-151.589146	409.295595	442.646083	-79.562115	95.573050	949.465566	-493.686160	158.611497	891.845791	-490.967310	190.283109	910.646516	-488.452537	185.662964	806.264477	-482.883084	250.294052	685.285800	-456.539245	272.822233	682.243353	-330.489181	10.441156	325.848298	-417.414529	-50.968067	293.275019	-376.432295	133.772076	203.291897	-452.147351	177.366226	582.679173	-471.318278	154.271893	502.288830	-451.908256	91.960654	440.250487	-443.026813	183.109090	489.632688	-429.592768	235.197714	206.658740	-389.125097	-216.246503	952.323671	-258.434534	-17.904584	80.909594	-461.119468	-17.904739	81.171821	-62.314598	
